<?xml version="1.0" encoding="utf-8"?>
<!-- Generator: Adobe Illustrator 28.0.0, SVG Export Plug-In . SVG Version: 6.00 Build 0)  -->
<svg version="1.1" xmlns="http://www.w3.org/2000/svg" xmlns:xlink="http://www.w3.org/1999/xlink" x="0px" y="0px"
	 viewBox="0 0 1000 1000" style="enable-background:new 0 0 1000 1000;" xml:space="preserve">
<style type="text/css">
	.st0{display:none;}
	.st1{fill:#FFFFFF;stroke:#000000;stroke-miterlimit:10;}
	.st2{display:inline;fill:#FFFFFF;}
	.st3{display:inline;fill:#E5281E;}
	.st4{display:inline;fill:#8FD1E3;}
	.st5{display:inline;fill:#3E7CB9;}
	.st6{display:inline;fill:#A01C18;}
	.st7{display:inline;stroke:#000000;stroke-width:0.5;stroke-miterlimit:10;}
	.st8{display:inline;}
	.st9{fill:#E5281E;}
	.st10{fill:#8FD1E3;}
	.st11{fill:#3E7CB9;}
	.st12{fill:#A01C18;}
	.st13{stroke:#000000;stroke-width:0.6941;stroke-miterlimit:10;}
	.st14{display:inline;stroke:#000000;stroke-width:0.6941;stroke-miterlimit:10;}
	.st15{fill:#83D0F5;}
	.st16{fill:#0083C6;}
</style>
<g id="Calque_1" class="st0">
	
		<image style="display:inline;overflow:visible;" width="360" height="360" xlink:href="C:\Users\Sylva\Desktop\pngtree-glitch-distorted-letter-c-broken-pixel-effect-png-image_2936127.jpg"  transform="matrix(1.9265 0 0 1.9265 153.2222 153.2222)">
	</image>
	<path class="st1" d="M576.5,441.7l107.5-24l-9.2-22.1h22.5l-23-39.1h-23c0,0-42.5-58.5-110.5-58.5s12.6,0-62.2,0
		s-128.1,56-128.1,56l19.6,1.2l-25.3,42.9h-22.5c0,0-16.8,47.8-16.8,79s0,12.2,0,45.8s18.6,79.5,18.6,79.5h-20.8l14.5,21.3
		l13.5,19.8h20.8l38.2,34.4l75.8,23.8h73.6l67.1-19.8l46.3-37.4H631l22.8-44.1h22.1l11.4-32.7l-106.8-31.2l-16.4,42.9l-19.6,23
		h-22.8l-19.3,9.4h-32.2l-29.5-9.7h20.6l-19.8-19.1l-14.4-43.9v-79.5l14.9-39.9l23.2-22.1l24.3-0.5l23.7-10l32.8,1.1l19.8,8.9h-20.8
		l21,20.8L576.5,441.7z"/>
	<g>
		<path class="st2" d="M364.4,736.4c0,70.1,53.9,127.2,120.1,127.2c49.2,0,86.9-22,106.2-62c0.2-0.4,0.5-0.7,0.9-0.8
			c0.4-0.1,0.8-0.1,1.2,0.1l58.6,28.6l0,0l5.6,2.8l13.8,6.7c0.8,0.4,1.1,1.3,0.7,2.1C638.3,912.2,570.9,951.4,482,951.4
			c-81.7,0-156.8-48.6-191.5-123.7c0,0,0,0,0,0c0,0,0,0,0,0l-2.6-5.9c0,0,0,0,0,0c0,0,0,0,0,0c-11.5-27-17.3-55.7-17.3-85.4
			c0-29.7,5.8-58.4,17.3-85.4c0,0,0,0,0,0c0,0,0,0,0,0l2.6-5.9c0,0,0,0,0,0c0,0,0,0,0,0c34.7-75.2,109.9-123.7,191.5-123.7
			c89,0,156.3,39.2,189.7,110.3c0.4,0.8,0,1.7-0.7,2.1l-13.8,6.7c0,0,0,0,0,0l-5.6,2.8c0,0,0,0,0,0l-58.6,28.6
			c-0.4,0.2-0.8,0.2-1.2,0.1c-0.4-0.1-0.7-0.4-0.9-0.8c-19.3-40-57-62-106.2-62C418.3,609.2,364.4,666.3,364.4,736.4z"/>
	</g>
</g>
<g id="Calque_2" class="st0">
	<path class="st3" d="M635.6,647.6l29.1-35.5h25.9c3.1-5.3,6.1-10.7,8.7-16.4c0.3-0.7-74.8-36.9-74.9-36.6
		c-17.9,37-52.8,57.4-98.4,57.4c-61.3,0-111.3-52.9-111.3-117.8S464.6,380.9,526,380.9c19.8,0,37.6,3.9,52.9,11.2
		c19.9,9.6,35.4,25.2,45.5,46.1c0.2,0.3,75.3-35.9,74.9-36.6c-2.4-5-4.9-9.9-7.7-14.6h16.8l-24.4-39.4h-23.9
		c-33.9-31.4-80.6-48.1-136.6-48.1c-52.1,0-101.3,21.3-137.4,57.3h19.8l-26.6,40.6h-24.6c-3.1,5.4-6,10.9-8.7,16.7c0,0,0,0,0,0
		s0,0,0,0l-2.4,5.5c0,0,0,0,0,0c0,0,0,0,0,0c-10.7,25-16.1,51.6-16.1,79.1c0,27.5,5.4,54.1,16.1,79.1c0,0,0,0,0,0c0,0,0,0,0,0
		l2.4,5.5c0,0,0,0,0,0c0,0,0,0,0,0c2.9,6.3,6.1,12.4,9.6,18.2h-34l25.7,41.6h41.3c35.9,34.5,84,54.8,134.8,54.8
		c57.2,0,104.8-17.5,138.9-50.3H635.6z"/>
	<path class="st4" d="M606.3,647.6l29.1-35.5h25.9c3.1-5.3,6.1-10.7,8.7-16.4c0.3-0.7-74.8-36.9-74.9-36.6
		c-17.9,37-52.8,57.4-98.4,57.4c-61.3,0-111.3-52.9-111.3-117.8s49.9-117.8,111.3-117.8c19.8,0,37.6,3.9,52.9,11.2
		c19.9,9.6,35.4,25.2,45.5,46.1c0.2,0.3,75.3-35.9,74.9-36.6c-2.4-5-4.9-9.9-7.7-14.6h16.8l-24.4-39.4h-23.9
		c-33.9-31.4-80.6-48.1-136.6-48.1c-52.1,0-101.3,21.3-137.4,57.3h19.8l-26.6,40.6h-24.6c-3.1,5.4-6,10.9-8.7,16.7c0,0,0,0,0,0
		s0,0,0,0l-2.4,5.5c0,0,0,0,0,0c0,0,0,0,0,0c-10.7,25-16.1,51.6-16.1,79.1c0,27.5,5.4,54.1,16.1,79.1c0,0,0,0,0,0c0,0,0,0,0,0
		l2.4,5.5c0,0,0,0,0,0c0,0,0,0,0,0c2.9,6.3,6.1,12.4,9.6,18.2h-34l25.7,41.6h41.3c35.9,34.5,84,54.8,134.8,54.8
		c57.2,0,104.8-17.5,138.9-50.3H606.3z"/>
	<path class="st5" d="M613.4,647.6l29.1-35.5h25.9c3.1-5.3,6.1-10.7,8.7-16.4c0.3-0.7-74.8-36.9-74.9-36.6
		c-17.9,37-52.8,57.4-98.4,57.4c-61.3,0-111.3-52.9-111.3-117.8s49.9-117.8,111.3-117.8c19.8,0,37.6,3.9,52.9,11.2
		c19.9,9.6,35.4,25.2,45.5,46.1c0.2,0.3,75.3-35.9,74.9-36.6c-2.4-5-4.9-9.9-7.7-14.6h16.8l-24.4-39.4H638
		c-33.9-31.4-80.6-48.1-136.6-48.1c-52.1,0-101.3,21.3-137.4,57.3h19.8l-26.6,40.6h-24.6c-3.1,5.4-6,10.9-8.7,16.7c0,0,0,0,0,0
		s0,0,0,0l-2.4,5.5c0,0,0,0,0,0c0,0,0,0,0,0c-10.7,25-16.1,51.6-16.1,79.1c0,27.5,5.4,54.1,16.1,79.1c0,0,0,0,0,0c0,0,0,0,0,0
		l2.4,5.5c0,0,0,0,0,0c0,0,0,0,0,0c2.9,6.3,6.1,12.4,9.6,18.2h-34l25.7,41.6h41.3c35.9,34.5,84,54.8,134.8,54.8
		c57.2,0,104.8-17.5,138.9-50.3H613.4z"/>
	<path class="st6" d="M625.8,647.6l29.1-35.5h25.9c3.1-5.3,6.1-10.7,8.7-16.4c0.3-0.7-74.8-36.9-74.9-36.6
		c-17.9,37-52.8,57.4-98.4,57.4c-61.3,0-111.3-52.9-111.3-117.8s49.9-117.8,111.3-117.8c19.8,0,37.6,3.9,52.9,11.2
		c19.9,9.6,35.4,25.2,45.5,46.1c0.2,0.3,75.3-35.9,74.9-36.6c-2.4-5-4.9-9.9-7.7-14.6h16.8l-24.4-39.4h-23.9
		c-33.9-31.4-80.6-48.1-136.6-48.1c-52.1,0-101.3,21.3-137.4,57.3h19.8l-26.6,40.6h-24.6c-3.1,5.4-6,10.9-8.7,16.7c0,0,0,0,0,0
		s0,0,0,0l-2.4,5.5c0,0,0,0,0,0c0,0,0,0,0,0c-10.7,25-16.1,51.6-16.1,79.1c0,27.5,5.4,54.1,16.1,79.1c0,0,0,0,0,0c0,0,0,0,0,0
		l2.4,5.5c0,0,0,0,0,0c0,0,0,0,0,0c2.9,6.3,6.1,12.4,9.6,18.2h-34l25.7,41.6H379c35.9,34.5,84,54.8,134.8,54.8
		c57.2,0,104.8-17.5,138.9-50.3H625.8z"/>
	<path class="st7" d="M619.1,647.6l29.1-35.5h25.9c3.1-5.3,6.1-10.7,8.7-16.4c0.3-0.7-74.8-36.9-74.9-36.6
		c-17.9,37-52.8,57.4-98.4,57.4c-61.3,0-111.3-52.9-111.3-117.8s49.9-117.8,111.3-117.8c19.8,0,37.6,3.9,52.9,11.2
		c19.9,9.6,35.4,25.2,45.5,46.1c0.2,0.3,75.3-35.9,74.9-36.6c-2.4-5-4.9-9.9-7.7-14.6h16.8l-24.4-39.4h-23.9
		c-33.9-31.4-80.6-48.1-136.6-48.1c-52.1,0-101.3,21.3-137.4,57.3h19.8L363,397.4h-24.6c-3.1,5.4-6,10.9-8.7,16.7c0,0,0,0,0,0
		s0,0,0,0l-2.4,5.5c0,0,0,0,0,0c0,0,0,0,0,0c-10.7,25-16.1,51.6-16.1,79.1c0,27.5,5.4,54.1,16.1,79.1c0,0,0,0,0,0c0,0,0,0,0,0
		l2.4,5.5c0,0,0,0,0,0c0,0,0,0,0,0c2.9,6.3,6.1,12.4,9.6,18.2h-34l25.7,41.6h41.3c35.9,34.5,84,54.8,134.8,54.8
		c57.2,0,104.8-17.5,138.9-50.3H619.1z"/>
</g>
<g id="Calque_3" class="st0">
	<g class="st8">
		<path class="st9" d="M743.1,392.4v486.9c0,0.6-0.5,1.1-1.1,1.1h-61.4c-0.6,0-1.1-0.5-1.1-1.1v-166h-237v166c0,0.6-0.5,1.1-1.1,1.1
			h-62c-0.6,0-1.1-0.5-1.1-1.1v-459l-14.8-27.3c-0.2-0.3-0.2-0.8,0-1.1c0.2-0.3,0.6-0.5,1-0.5h76.9c0.6,0,1.1,0.5,1.1,1.1V655h237
			V392.4c0-0.6,0.5-1.1,1.1-1.1H742C742.6,391.3,743.1,391.8,743.1,392.4z"/>
	</g>
	<g class="st8">
		<path class="st10" d="M714.4,392.4v486.9c0,0.6-0.5,1.1-1.1,1.1h-61.4c-0.6,0-1.1-0.5-1.1-1.1v-166h-237v166
			c0,0.6-0.5,1.1-1.1,1.1h-62c-0.6,0-1.1-0.5-1.1-1.1v-459l-14.8-27.3c-0.2-0.3-0.2-0.8,0-1.1c0.2-0.3,0.6-0.5,1-0.5h76.9
			c0.6,0,1.1,0.5,1.1,1.1V655h237V392.4c0-0.6,0.5-1.1,1.1-1.1h61.4C713.9,391.3,714.3,391.8,714.4,392.4z"/>
	</g>
	<g class="st8">
		<path class="st11" d="M723.3,392.4v486.9c0,0.6-0.5,1.1-1.1,1.1h-61.4c-0.6,0-1.1-0.5-1.1-1.1v-166h-237v166
			c0,0.6-0.5,1.1-1.1,1.1h-62c-0.6,0-1.1-0.5-1.1-1.1v-459l-14.8-27.3c-0.2-0.3-0.2-0.8,0-1.1c0.2-0.3,0.6-0.5,1-0.5h76.9
			c0.6,0,1.1,0.5,1.1,1.1V655h237V392.4c0-0.6,0.5-1.1,1.1-1.1h61.4C722.8,391.3,723.3,391.8,723.3,392.4z"/>
	</g>
	<g class="st8">
		<path class="st12" d="M738.4,392.4v486.9c0,0.6-0.5,1.1-1.1,1.1h-61.4c-0.6,0-1.1-0.5-1.1-1.1v-166h-237v166
			c0,0.6-0.5,1.1-1.1,1.1h-62c-0.6,0-1.1-0.5-1.1-1.1v-459l-14.8-27.3c-0.2-0.3-0.2-0.8,0-1.1c0.2-0.3,0.6-0.5,1-0.5h76.9
			c0.6,0,1.1,0.5,1.1,1.1V655h237V392.4c0-0.6,0.5-1.1,1.1-1.1h61.4C737.9,391.3,738.4,391.8,738.4,392.4z"/>
	</g>
	<g class="st8">
		<path class="st9" d="M561.5,564.1l40.4-49.2h35.9c4.4-7.3,8.4-14.9,12.1-22.8c0.5-1-103.8-51.3-104-50.8
			c-24.8,51.4-73.3,79.7-136.6,79.7c-85.2,0-154.4-73.4-154.4-163.6s69.3-163.6,154.4-163.6c27.5,0,52.2,5.3,73.4,15.6
			c27.6,13.4,49.2,35,63.2,64.1c0.2,0.5,104.5-49.8,104-50.8c-3.3-7-6.9-13.7-10.7-20.3h23.3l-33.8-54.8h-33.1
			C548.6,104.1,483.7,80.8,406,80.8c-72.3,0-140.6,29.6-190.7,79.5h27.6l-36.9,56.4h-34.1c-4.4,7.5-8.4,15.2-12.1,23.1c0,0,0,0,0,0
			c0,0,0,0,0,0l-3.4,7.6c0,0,0,0,0,0c0,0,0,0,0,0c-14.8,34.7-22.3,71.6-22.3,109.8c0,38.2,7.5,75.1,22.3,109.8c0,0,0,0,0,0
			c0,0,0,0,0,0l3.4,7.6c0,0,0,0,0,0c0,0,0,0,0,0c4,8.7,8.5,17.2,13.3,25.3h-47.2l35.7,57.8h57.3c49.8,47.8,116.6,76,187.1,76
			c79.4,0,145.5-24.3,192.8-69.8H561.5z"/>
		<path class="st10" d="M520.9,564.1l40.4-49.2h35.9c4.4-7.3,8.4-14.9,12.1-22.8c0.5-1-103.8-51.3-104-50.8
			c-24.8,51.4-73.3,79.7-136.6,79.7c-85.2,0-154.4-73.4-154.4-163.6s69.3-163.6,154.4-163.6c27.5,0,52.2,5.3,73.4,15.6
			c27.6,13.4,49.2,35,63.2,64.1c0.2,0.5,104.5-49.8,104-50.8c-3.3-7-6.9-13.7-10.7-20.3h23.3l-33.8-54.8H555
			c-47.1-43.6-111.9-66.8-189.6-66.8c-72.3,0-140.6,29.6-190.7,79.5h27.6l-36.9,56.4h-34.1c-4.4,7.5-8.4,15.2-12.1,23.1c0,0,0,0,0,0
			c0,0,0,0,0,0l-3.4,7.6c0,0,0,0,0,0c0,0,0,0,0,0c-14.8,34.7-22.3,71.6-22.3,109.8c0,38.2,7.5,75.1,22.3,109.8c0,0,0,0,0,0
			c0,0,0,0,0,0l3.4,7.6c0,0,0,0,0,0c0,0,0,0,0,0c4,8.7,8.5,17.2,13.3,25.3H85.2l35.7,57.8h57.3c49.8,47.8,116.6,76,187.1,76
			c79.4,0,145.5-24.3,192.8-69.8H520.9z"/>
		<path class="st11" d="M530.6,564.1l40.4-49.2h35.9c4.4-7.3,8.4-14.9,12.1-22.8c0.5-1-103.8-51.3-104-50.8
			c-24.8,51.4-73.3,79.7-136.6,79.7c-85.2,0-154.4-73.4-154.4-163.6s69.3-163.6,154.4-163.6c27.5,0,52.2,5.3,73.4,15.6
			c27.6,13.4,49.2,35,63.2,64.1c0.2,0.5,104.5-49.8,104-50.8c-3.3-7-6.9-13.7-10.7-20.3h23.3l-33.8-54.8h-33.1
			c-47.1-43.6-111.9-66.8-189.6-66.8c-72.3,0-140.6,29.6-190.7,79.5H212L175,216.8h-34.1c-4.4,7.5-8.4,15.2-12.1,23.1c0,0,0,0,0,0
			c0,0,0,0,0,0l-3.4,7.6c0,0,0,0,0,0c0,0,0,0,0,0c-14.8,34.7-22.3,71.6-22.3,109.8c0,38.2,7.5,75.1,22.3,109.8c0,0,0,0,0,0
			c0,0,0,0,0,0l3.4,7.6c0,0,0,0,0,0c0,0,0,0,0,0c4,8.7,8.5,17.2,13.3,25.3H95l35.7,57.8H188c49.8,47.8,116.6,76,187.1,76
			c79.4,0,145.5-24.3,192.8-69.8H530.6z"/>
		<path class="st12" d="M547.9,564.1l40.4-49.2h35.9c4.4-7.3,8.4-14.9,12.1-22.8c0.5-1-103.8-51.3-104-50.8
			c-24.8,51.4-73.3,79.7-136.6,79.7c-85.2,0-154.4-73.4-154.4-163.6s69.3-163.6,154.4-163.6c27.5,0,52.2,5.3,73.4,15.6
			c27.6,13.4,49.2,35,63.2,64.1c0.2,0.5,104.5-49.8,104-50.8c-3.3-7-6.9-13.7-10.7-20.3H649l-33.8-54.8H582
			C535,104.1,470.1,80.8,392.4,80.8c-72.3,0-140.6,29.6-190.7,79.5h27.6l-36.9,56.4h-34.1c-4.4,7.5-8.4,15.2-12.1,23.1c0,0,0,0,0,0
			c0,0,0,0,0,0l-3.4,7.6c0,0,0,0,0,0c0,0,0,0,0,0c-14.8,34.7-22.3,71.6-22.3,109.8c0,38.2,7.5,75.1,22.3,109.8c0,0,0,0,0,0
			c0,0,0,0,0,0l3.4,7.6c0,0,0,0,0,0c0,0,0,0,0,0c4,8.7,8.5,17.2,13.3,25.3h-47.2l35.7,57.8h57.3c49.8,47.8,116.6,76,187.1,76
			c79.4,0,145.5-24.3,192.8-69.8H547.9z"/>
		<path class="st13" d="M538.6,564.1l40.4-49.2h35.9c4.4-7.3,8.4-14.9,12.1-22.8c0.5-1-103.8-51.3-104-50.8
			c-24.8,51.4-73.3,79.7-136.6,79.7c-85.2,0-154.4-73.4-154.4-163.6s69.3-163.6,154.4-163.6c27.5,0,52.2,5.3,73.4,15.6
			c27.6,13.4,49.2,35,63.2,64.1c0.2,0.5,104.5-49.8,104-50.8c-3.3-7-6.9-13.7-10.7-20.3h23.3l-33.8-54.8h-33.1
			c-47.1-43.6-111.9-66.8-189.6-66.8c-72.3,0-140.6,29.6-190.7,79.5h27.6L183,216.8h-34.1c-4.4,7.5-8.4,15.2-12.1,23.1c0,0,0,0,0,0
			c0,0,0,0,0,0l-3.4,7.6c0,0,0,0,0,0c0,0,0,0,0,0c-14.8,34.7-22.3,71.6-22.3,109.8c0,38.2,7.5,75.1,22.3,109.8c0,0,0,0,0,0
			c0,0,0,0,0,0l3.4,7.6c0,0,0,0,0,0c0,0,0,0,0,0c4,8.7,8.5,17.2,13.3,25.3h-47.2l35.7,57.8H196c49.8,47.8,116.6,76,187.1,76
			c79.4,0,145.5-24.3,192.8-69.8H538.6z"/>
	</g>
	<path class="st8" d="M732.4,392.4v486.9c0,0.6-0.5,1.1-1.1,1.1h-61.4c-0.6,0-1.1-0.5-1.1-1.1v-166h-237v166c0,0.6-0.5,1.1-1.1,1.1
		h-62c-0.6,0-1.1-0.5-1.1-1.1v-459l-14.8-27.3c-0.2-0.3-0.2-0.8,0-1.1c0.2-0.3,0.6-0.5,1-0.5h76.9c0.6,0,1.1,0.5,1.1,1.1V655h237
		V392.4c0-0.6,0.5-1.1,1.1-1.1h61.4C731.9,391.3,732.4,391.8,732.4,392.4z"/>
</g>
<g id="Calque_4" class="st0">
	<g class="st8">
		<path class="st9" d="M790.5,433.3v486.9c0,0.6-0.5,1.1-1.1,1.1H728c-0.6,0-1.1-0.5-1.1-1.1v-166h-237v166c0,0.6-0.5,1.1-1.1,1.1
			h-62c-0.6,0-1.1-0.5-1.1-1.1v-459l-14.8-27.3c-0.2-0.3-0.2-0.8,0-1.1c0.2-0.3,0.6-0.5,1-0.5h76.9c0.6,0,1.1,0.5,1.1,1.1v262.6h237
			V433.3c0-0.6,0.5-1.1,1.1-1.1h61.4C790,432.2,790.5,432.7,790.5,433.3z"/>
	</g>
	<g class="st8">
		<path class="st10" d="M764.8,425.3v486.9c0,0.6-0.5,1.1-1.1,1.1h-61.4c-0.6,0-1.1-0.5-1.1-1.1v-166h-237v166
			c0,0.6-0.5,1.1-1.1,1.1h-62c-0.6,0-1.1-0.5-1.1-1.1v-459l-14.8-27.3c-0.2-0.3-0.2-0.8,0-1.1c0.2-0.3,0.6-0.5,1-0.5h76.9
			c0.6,0,1.1,0.5,1.1,1.1v262.6h237V425.3c0-0.6,0.5-1.1,1.1-1.1h61.4C764.3,424.2,764.8,424.7,764.8,425.3z"/>
	</g>
	<g class="st8">
		<path class="st11" d="M772.8,427.3v486.9c0,0.6-0.5,1.1-1.1,1.1h-61.4c-0.6,0-1.1-0.5-1.1-1.1v-166h-237v166
			c0,0.6-0.5,1.1-1.1,1.1h-62c-0.6,0-1.1-0.5-1.1-1.1v-459l-14.8-27.3c-0.2-0.3-0.2-0.8,0-1.1c0.2-0.3,0.6-0.5,1-0.5H471
			c0.6,0,1.1,0.5,1.1,1.1v262.6h237V427.3c0-0.6,0.5-1.1,1.1-1.1h61.4C772.3,426.2,772.7,426.7,772.8,427.3z"/>
	</g>
	<g class="st8">
		<path class="st12" d="M785.9,431.3v486.9c0,0.6-0.5,1.1-1.1,1.1h-61.4c-0.6,0-1.1-0.5-1.1-1.1v-166h-237v166
			c0,0.6-0.5,1.1-1.1,1.1h-62c-0.6,0-1.1-0.5-1.1-1.1v-459l-14.8-27.3c-0.2-0.3-0.2-0.8,0-1.1c0.2-0.3,0.6-0.5,1-0.5h76.9
			c0.6,0,1.1,0.5,1.1,1.1v262.6h237V431.3c0-0.6,0.5-1.1,1.1-1.1h61.4C785.3,430.2,785.8,430.7,785.9,431.3z"/>
	</g>
	<path class="st3" d="M606.9,601l40.4-49.2h35.9c4.4-7.3,8.4-14.9,12.1-22.8c0.5-1-103.8-51.3-104-50.8
		c-24.8,51.4-73.3,79.7-136.6,79.7c-85.2,0-154.4-73.4-154.4-163.6s69.3-163.6,154.4-163.6c27.5,0,52.2,5.3,73.4,15.6
		c27.6,13.4,49.2,35,63.2,64.1c0.2,0.5,104.5-49.8,104-50.8c-3.3-7-6.9-13.7-10.7-20.3H708l-33.8-54.8h-33.1
		C594,141,529.1,117.8,451.4,117.8c-72.3,0-140.6,29.6-190.7,79.5h27.6l-36.9,56.4h-34.1c-4.4,7.5-8.4,15.2-12.1,23.1c0,0,0,0,0,0
		c0,0,0,0,0,0l-3.4,7.6c0,0,0,0,0,0c0,0,0,0,0,0c-14.8,34.7-22.3,71.6-22.3,109.8c0,38.2,7.5,75.1,22.3,109.8c0,0,0,0,0,0
		c0,0,0,0,0,0l3.4,7.6c0,0,0,0,0,0c0,0,0,0,0,0c4,8.7,8.5,17.2,13.3,25.3h-47.2l35.7,57.8h57.3c49.8,47.8,116.6,76,187.1,76
		c79.4,0,145.5-24.3,192.8-69.8H606.9z"/>
	<path class="st4" d="M568.3,601l40.4-49.2h35.9c4.4-7.3,8.4-14.9,12.1-22.8c0.5-1-103.8-51.3-104-50.8
		c-24.8,51.4-73.3,79.7-136.6,79.7c-85.2,0-154.4-73.4-154.4-163.6s69.3-163.6,154.4-163.6c27.5,0,52.2,5.3,73.4,15.6
		c27.6,13.4,49.2,35,63.2,64.1c0.2,0.5,104.5-49.8,104-50.8c-3.3-7-6.9-13.7-10.7-20.3h23.3l-33.8-54.8h-33.1
		c-47.1-43.6-111.9-66.8-189.6-66.8c-72.3,0-140.6,29.6-190.7,79.5h27.6l-36.9,56.4h-34.1c-4.4,7.5-8.4,15.2-12.1,23.1c0,0,0,0,0,0
		c0,0,0,0,0,0l-3.4,7.6c0,0,0,0,0,0c0,0,0,0,0,0c-14.8,34.7-22.3,71.6-22.3,109.8c0,38.2,7.5,75.1,22.3,109.8c0,0,0,0,0,0
		c0,0,0,0,0,0l3.4,7.6c0,0,0,0,0,0c0,0,0,0,0,0c4,8.7,8.5,17.2,13.3,25.3h-47.2l35.7,57.8h57.3c49.8,47.8,116.6,76,187.1,76
		c79.4,0,145.5-24.3,192.8-69.8H568.3z"/>
	<path class="st5" d="M578.1,601l40.4-49.2h35.9c4.4-7.3,8.4-14.9,12.1-22.8c0.5-1-103.8-51.3-104-50.8
		c-24.8,51.4-73.3,79.7-136.6,79.7c-85.2,0-154.4-73.4-154.4-163.6s69.3-163.6,154.4-163.6c27.5,0,52.2,5.3,73.4,15.6
		c27.6,13.4,49.2,35,63.2,64.1c0.2,0.5,104.5-49.8,104-50.8c-3.3-7-6.9-13.7-10.7-20.3h23.3l-33.8-54.8h-33.1
		c-47.1-43.6-111.9-66.8-189.6-66.8c-72.3,0-140.6,29.6-190.7,79.5h27.6l-36.9,56.4h-34.1c-4.4,7.5-8.4,15.2-12.1,23.1c0,0,0,0,0,0
		c0,0,0,0,0,0l-3.4,7.6c0,0,0,0,0,0c0,0,0,0,0,0c-14.8,34.7-22.3,71.6-22.3,109.8c0,38.2,7.5,75.1,22.3,109.8c0,0,0,0,0,0
		c0,0,0,0,0,0l3.4,7.6c0,0,0,0,0,0c0,0,0,0,0,0c4,8.7,8.5,17.2,13.3,25.3h-47.2l35.7,57.8h57.3c49.8,47.8,116.6,76,187.1,76
		c79.4,0,145.5-24.3,192.8-69.8H578.1z"/>
	<path class="st6" d="M595.3,601l40.4-49.2h35.9c4.4-7.3,8.4-14.9,12.1-22.8c0.5-1-103.8-51.3-104-50.8
		c-24.8,51.4-73.3,79.7-136.6,79.7c-85.2,0-154.4-73.4-154.4-163.6S358,230.7,443.1,230.7c27.5,0,52.2,5.3,73.4,15.6
		c27.6,13.4,49.2,35,63.2,64.1c0.2,0.5,104.5-49.8,104-50.8c-3.3-7-6.9-13.7-10.7-20.3h23.3l-33.8-54.8h-33.1
		c-47.1-43.6-111.9-66.8-189.6-66.8c-72.3,0-140.6,29.6-190.7,79.5h27.6l-36.9,56.4h-34.1c-4.4,7.5-8.4,15.2-12.1,23.1c0,0,0,0,0,0
		c0,0,0,0,0,0l-3.4,7.6c0,0,0,0,0,0c0,0,0,0,0,0c-14.8,34.7-22.3,71.6-22.3,109.8c0,38.2,7.5,75.1,22.3,109.8c0,0,0,0,0,0
		c0,0,0,0,0,0l3.4,7.6c0,0,0,0,0,0c0,0,0,0,0,0c4,8.7,8.5,17.2,13.3,25.3h-47.2l35.7,57.8h57.3c49.8,47.8,116.6,76,187.1,76
		c79.4,0,145.5-24.3,192.8-69.8H595.3z"/>
	<path class="st14" d="M586,601l40.4-49.2h35.9c4.4-7.3,8.4-14.9,12.1-22.8c0.5-1-103.8-51.3-104-50.8
		c-24.8,51.4-73.3,79.7-136.6,79.7c-85.2,0-154.4-73.4-154.4-163.6s69.3-163.6,154.4-163.6c27.5,0,52.2,5.3,73.4,15.6
		c27.6,13.4,49.2,35,63.2,64.1c0.2,0.5,104.5-49.8,104-50.8c-3.3-7-6.9-13.7-10.7-20.3h23.3l-33.8-54.8h-33.1
		c-47.1-43.6-111.9-66.8-189.6-66.8c-72.3,0-140.6,29.6-190.7,79.5h27.6l-36.9,56.4h-34.1c-4.4,7.5-8.4,15.2-12.1,23.1c0,0,0,0,0,0
		c0,0,0,0,0,0l-3.4,7.6c0,0,0,0,0,0c0,0,0,0,0,0c-14.8,34.7-22.3,71.6-22.3,109.8c0,38.2,7.5,75.1,22.3,109.8c0,0,0,0,0,0
		c0,0,0,0,0,0l3.4,7.6c0,0,0,0,0,0c0,0,0,0,0,0c4,8.7,8.5,17.2,13.3,25.3h-47.2l35.7,57.8h57.3c49.8,47.8,116.6,76,187.1,76
		c79.4,0,145.5-24.3,192.8-69.8H586z"/>
	<path class="st8" d="M779.9,429.3v486.9c0,0.6-0.5,1.1-1.1,1.1h-61.4c-0.6,0-1.1-0.5-1.1-1.1v-166h-237v166c0,0.6-0.5,1.1-1.1,1.1
		h-62c-0.6,0-1.1-0.5-1.1-1.1v-459l-14.8-27.3c-0.2-0.3-0.2-0.8,0-1.1c0.2-0.3,0.6-0.5,1-0.5h76.9c0.6,0,1.1,0.5,1.1,1.1v262.6h237
		V429.3c0-0.6,0.5-1.1,1.1-1.1h61.4C779.3,428.2,779.8,428.7,779.9,429.3z"/>
</g>
<g id="Calque_5">
	<g>
		<path class="st9" d="M828.9,399.1h-64.6c-0.6,0-1.2,0.5-1.2,1.2v128.7H754l-24.3,33.5h33.4v114.1H513.8v-38.2
			c66.3-5.4,121.8-28.9,163.1-68.6h-37.3l40.4-49.2h35.9c4.4-7.3,8.4-14.9,12.1-22.8c0.5-1-103.8-51.3-104-50.8
			c-21.3,44-59.9,71-110.2,77.9V400.2c0-0.6-0.5-1.2-1.2-1.2h-80.9c-0.4,0-0.8,0.2-1,0.6c-0.2,0.4-0.2,0.8,0,1.2l15.6,28.8v91
			C381,501.4,333,438,333,362.9c0-90.2,69.3-163.6,154.4-163.6c27.5,0,52.2,5.3,73.4,15.6c27.6,13.4,49.2,35,63.2,64.1
			c0.2,0.5,104.5-49.8,104-50.8c-3.3-7-6.9-13.7-10.7-20.3h23.3l-33.8-54.8h-33.1c-47.1-43.6-111.9-66.8-189.6-66.8
			c-72.3,0-140.6,29.6-190.7,79.5h27.6L284,222.3h-34.1c-4.4,7.5-8.4,15.2-12.1,23.1c0,0,0,0,0,0c0,0,0,0,0,0l-3.4,7.6c0,0,0,0,0,0
			c0,0,0,0,0,0c-14.8,34.7-22.3,71.6-22.3,109.8c0,38.2,7.5,75.1,22.3,109.8c0,0,0,0,0,0c0,0,0,0,0,0l3.4,7.6c0,0,0,0,0,0
			c0,0,0,0,0,0c4,8.7,8.5,17.2,13.3,25.3h-47.2l35.7,57.8H297c40.8,39.2,93,65.2,149.3,73.3V713h43.6l-28.1,38.2h-15.4v161.3
			c0,0.6,0.5,1.2,1.2,1.2h65.2c0.6,0,1.2-0.5,1.2-1.2V737.8h249.3v174.6c0,0.6,0.5,1.2,1.2,1.2h64.6c0.6,0,1.2-0.5,1.2-1.2V400.2
			C830,399.6,829.5,399.1,828.9,399.1z"/>
		<path class="st12" d="M822.9,399.1h-64.6c-0.6,0-1.2,0.5-1.2,1.2v128.7H748l-24.3,33.5h33.4v114.1H507.8v-38.2
			c66.3-5.4,121.8-28.9,163.1-68.6h-37.3l40.4-49.2h35.9c4.4-7.3,8.4-14.9,12.1-22.8c0.5-1-103.8-51.3-104-50.8
			c-21.3,44-59.9,71-110.2,77.9V400.2c0-0.6-0.5-1.2-1.2-1.2h-80.9c-0.4,0-0.8,0.2-1,0.6c-0.2,0.4-0.2,0.8,0,1.2l15.6,28.8v91
			C375,501.4,327,438,327,362.9c0-90.2,69.3-163.6,154.4-163.6c27.5,0,52.2,5.3,73.4,15.6c27.6,13.4,49.2,35,63.2,64.1
			c0.2,0.5,104.5-49.8,104-50.8c-3.3-7-6.9-13.7-10.7-20.3h23.3l-33.8-54.8h-33.1c-47.1-43.6-111.9-66.8-189.6-66.8
			c-72.3,0-140.6,29.6-190.7,79.5h27.6L278,222.3h-34.1c-4.4,7.5-8.4,15.2-12.1,23.1c0,0,0,0,0,0c0,0,0,0,0,0l-3.4,7.6c0,0,0,0,0,0
			c0,0,0,0,0,0c-14.8,34.7-22.3,71.6-22.3,109.8c0,38.2,7.5,75.1,22.3,109.8c0,0,0,0,0,0c0,0,0,0,0,0l3.4,7.6c0,0,0,0,0,0
			c0,0,0,0,0,0c4,8.7,8.5,17.2,13.3,25.3h-47.2l35.7,57.8H291c40.8,39.2,93,65.2,149.3,73.3V713h43.6l-28.1,38.2h-15.4v161.3
			c0,0.6,0.5,1.2,1.2,1.2h65.2c0.6,0,1.2-0.5,1.2-1.2V737.8h249.3v174.6c0,0.6,0.5,1.2,1.2,1.2h64.6c0.6,0,1.2-0.5,1.2-1.2V400.2
			C824,399.6,823.5,399.1,822.9,399.1z"/>
		<path class="st15" d="M794.9,399.1h-64.6c-0.6,0-1.2,0.5-1.2,1.2v128.7H720l-24.3,33.5h33.4v114.1H479.8v-38.2
			c66.3-5.4,121.8-28.9,163.1-68.6h-37.3l40.4-49.2h35.9c4.4-7.3,8.4-14.9,12.1-22.8c0.5-1-103.8-51.3-104-50.8
			c-21.3,44-59.9,71-110.2,77.9V400.2c0-0.6-0.5-1.2-1.2-1.2h-80.9c-0.4,0-0.8,0.2-1,0.6c-0.2,0.4-0.2,0.8,0,1.2l15.6,28.8v91
			C347,501.4,299,438,299,362.9c0-90.2,69.3-163.6,154.4-163.6c27.5,0,52.2,5.3,73.4,15.6c27.6,13.4,49.2,35,63.2,64.1
			c0.2,0.5,104.5-49.8,104-50.8c-3.3-7-6.9-13.7-10.7-20.3h23.3l-33.8-54.8h-33.1c-47.1-43.6-111.9-66.8-189.6-66.8
			c-72.3,0-140.6,29.6-190.7,79.5h27.6L250,222.3h-34.1c-4.4,7.5-8.4,15.2-12.1,23.1c0,0,0,0,0,0c0,0,0,0,0,0l-3.4,7.6c0,0,0,0,0,0
			c0,0,0,0,0,0c-14.8,34.7-22.3,71.6-22.3,109.8c0,38.2,7.5,75.1,22.3,109.8c0,0,0,0,0,0c0,0,0,0,0,0l3.4,7.6c0,0,0,0,0,0
			c0,0,0,0,0,0c4,8.7,8.5,17.2,13.3,25.3h-47.2l35.7,57.8H263c40.8,39.2,93,65.2,149.3,73.3V713h43.6l-28.1,38.2h-15.4v161.3
			c0,0.6,0.5,1.2,1.2,1.2h65.2c0.6,0,1.2-0.5,1.2-1.2V737.8h249.3v174.6c0,0.6,0.5,1.2,1.2,1.2h64.6c0.6,0,1.2-0.5,1.2-1.2V400.2
			C796,399.6,795.5,399.1,794.9,399.1z"/>
		<path class="st16" d="M801.9,399.1h-64.6c-0.6,0-1.2,0.5-1.2,1.2v128.7H727l-24.3,33.5h33.4v114.1H486.8v-38.2
			c66.3-5.4,121.8-28.9,163.1-68.6h-37.3l40.4-49.2h35.9c4.4-7.3,8.4-14.9,12.1-22.8c0.5-1-103.8-51.3-104-50.8
			c-21.3,44-59.9,71-110.2,77.9V400.2c0-0.6-0.5-1.2-1.2-1.2h-80.9c-0.4,0-0.8,0.2-1,0.6c-0.2,0.4-0.2,0.8,0,1.2l15.6,28.8v91
			C354,501.4,306,438,306,362.9c0-90.2,69.3-163.6,154.4-163.6c27.5,0,52.2,5.3,73.4,15.6c27.6,13.4,49.2,35,63.2,64.1
			c0.2,0.5,104.5-49.8,104-50.8c-3.3-7-6.9-13.7-10.7-20.3h23.3l-33.8-54.8h-33.1c-47.1-43.6-111.9-66.8-189.6-66.8
			c-72.3,0-140.6,29.6-190.7,79.5h27.6L257,222.3h-34.1c-4.4,7.5-8.4,15.2-12.1,23.1c0,0,0,0,0,0c0,0,0,0,0,0l-3.4,7.6c0,0,0,0,0,0
			c0,0,0,0,0,0c-14.8,34.7-22.3,71.6-22.3,109.8c0,38.2,7.5,75.1,22.3,109.8c0,0,0,0,0,0c0,0,0,0,0,0l3.4,7.6c0,0,0,0,0,0
			c0,0,0,0,0,0c4,8.7,8.5,17.2,13.3,25.3h-47.2l35.7,57.8H270c40.8,39.2,93,65.2,149.3,73.3V713h43.6l-28.1,38.2h-15.4v161.3
			c0,0.6,0.5,1.2,1.2,1.2h65.2c0.6,0,1.2-0.5,1.2-1.2V737.8h249.3v174.6c0,0.6,0.5,1.2,1.2,1.2h64.6c0.6,0,1.2-0.5,1.2-1.2V400.2
			C803,399.6,802.5,399.1,801.9,399.1z"/>
		<path d="M811.9,399.1h-64.6c-0.6,0-1.2,0.5-1.2,1.2v128.7H737l-24.3,33.5h33.4v114.1H496.8v-38.2c66.3-5.4,121.8-28.9,163.1-68.6
			h-37.3l40.4-49.2h35.9c4.4-7.3,8.4-14.9,12.1-22.8c0.5-1-103.8-51.3-104-50.8c-21.3,44-59.9,71-110.2,77.9V400.2
			c0-0.6-0.5-1.2-1.2-1.2h-80.9c-0.4,0-0.8,0.2-1,0.6c-0.2,0.4-0.2,0.8,0,1.2l15.6,28.8v91C364,501.4,316,438,316,362.9
			c0-90.2,69.3-163.6,154.4-163.6c27.5,0,52.2,5.3,73.4,15.6c27.6,13.4,49.2,35,63.2,64.1c0.2,0.5,104.5-49.8,104-50.8
			c-3.3-7-6.9-13.7-10.7-20.3h23.3l-33.8-54.8h-33.1c-47.1-43.6-111.9-66.8-189.6-66.8c-72.3,0-140.6,29.6-190.7,79.5h27.6
			L267,222.3h-34.1c-4.4,7.5-8.4,15.2-12.1,23.1c0,0,0,0,0,0c0,0,0,0,0,0l-3.4,7.6c0,0,0,0,0,0c0,0,0,0,0,0
			c-14.8,34.7-22.3,71.6-22.3,109.8c0,38.2,7.5,75.1,22.3,109.8c0,0,0,0,0,0c0,0,0,0,0,0l3.4,7.6c0,0,0,0,0,0c0,0,0,0,0,0
			c4,8.7,8.5,17.2,13.3,25.3h-47.2l35.7,57.8H280c40.8,39.2,93,65.2,149.3,73.3V713h43.6l-28.1,38.2h-15.4v161.3
			c0,0.6,0.5,1.2,1.2,1.2h65.2c0.6,0,1.2-0.5,1.2-1.2V737.8h249.3v174.6c0,0.6,0.5,1.2,1.2,1.2h64.6c0.6,0,1.2-0.5,1.2-1.2V400.2
			C813,399.6,812.5,399.1,811.9,399.1z"/>
	</g>
</g>
</svg>
